<svg width="79" height="46" viewBox="0 0 79 46" fill="none" xmlns="http://www.w3.org/2000/svg">
<path d="M74.7532 20.952C72.9292 20.952 71.4892 19.832 70.4812 18.472L72.1612 17.304C72.8812 18.296 73.5052 19.176 74.7852 19.176C75.9052 19.176 76.3372 18.28 76.3372 17.8C76.3372 15.576 71.3932 15.56 71.3932 12.248C71.3932 10.2 73.0412 9 75.0092 9C76.1452 9 77.3452 9.48 78.1452 10.232L76.8012 11.656C76.2892 11.192 75.6332 10.76 75.0092 10.76C74.2252 10.76 73.5052 11.368 73.5052 12.184C73.5052 13.976 78.4332 14.728 78.4332 17.56C78.4332 19.592 76.5612 20.952 74.7532 20.952Z" fill="black"/>
<path d="M64.9565 16.9529V19.0169H69.0365L68.8765 20.8569H62.8125V9.12891H68.8765L69.0365 10.9689H64.9565V15.1769H68.3965L68.2365 16.9529H64.9565Z" fill="black"/>
<path d="M60.8913 10.8409H58.0433V20.8569H55.8993V10.8409H53.0513L53.2113 9.12891H60.7313L60.8913 10.8409Z" fill="black"/>
<path d="M48.2355 9L53.0835 20.856H50.8115L50.1395 19.208H45.9795L45.2915 20.856H43.3555L48.2355 9ZM46.6515 17.48H49.4675L48.0595 14.008L46.6515 17.48Z" fill="black"/>
<path d="M37.6753 19.0169H42.2352L42.0752 20.8569H35.5312V9.12891H37.6753V19.0169Z" fill="black"/>
<path d="M33.0217 9.12891V20.8569H30.8777V9.12891H33.0217Z" fill="black"/>
<path d="M28.744 13.0969C28.744 15.1449 27.032 17.0809 24.776 17.0809H23.144V20.8569H21V9.12891H24.776C26.824 9.12891 28.744 10.8729 28.744 13.0969ZM23.144 15.3209H24.744C25.816 15.3209 26.712 14.2969 26.712 13.0969C26.712 11.9769 25.848 10.9049 24.744 10.9049H23.144V15.3209Z" fill="black"/>
<path d="M65.0778 32.9842V35.0482H69.1578L68.9978 36.8882H62.9338V25.1602H68.9978L69.1578 27.0002H65.0778V31.2082H68.5178L68.3578 32.9842H65.0778Z" fill="black"/>
<path d="M51.1992 25.1602H55.1192C58.2232 25.1762 60.9912 27.7522 60.9912 31.0322C60.9912 34.1202 58.3832 36.8882 55.1192 36.8882H51.1992V25.1602ZM53.3432 35.1122H54.4952C56.7352 35.1122 58.7192 33.6402 58.7192 31.0322C58.7192 28.7442 57.1512 26.9362 54.4952 26.9362H53.3432V35.1122Z" fill="black"/>
<path d="M43.2664 37.0636C39.9704 37.0636 37.2344 34.2636 37.2344 31.0316C37.2344 27.7036 40.0504 25.0156 43.2664 25.0156C46.5944 25.0156 49.2984 27.8156 49.2984 31.0316C49.2984 34.3916 46.4984 37.0636 43.2664 37.0636ZM39.4424 31.0316C39.4424 33.2396 41.1704 35.3196 43.2664 35.3196C45.4904 35.3196 47.0904 33.0796 47.0904 31.0316C47.0904 28.8716 45.3624 26.7436 43.2664 26.7436C41.0904 26.7436 39.4424 28.9356 39.4424 31.0316Z" fill="black"/>
<path d="M34.928 33.992L36.24 35.336C35.168 36.392 33.664 37.048 32.032 37.048C28.864 37.048 26 34.392 26 31.032C26 27.864 28.688 25 32.032 25C33.424 25 34.72 25.48 35.728 26.28L34.944 28.056C34.224 27.384 33.232 26.984 32.144 26.984C30.032 26.984 28.32 28.824 28.32 31.048C28.32 33.16 29.92 35.096 32.144 35.096C33.2 35.096 34.176 34.68 34.928 33.992Z" fill="black"/>
<path fill-rule="evenodd" clip-rule="evenodd" d="M8.18835 45.9996C8.18835 45.9996 13.9612 38.7125 13.0148 29.0124C12.0683 19.3121 1.65797 12.9242 10.743 0.0537109C10.743 0.0537109 7.62024 6.01545 10.743 12.7347C13.866 19.454 18.3609 23.9492 16.6575 32.0879C14.954 40.2265 9.32331 45.4786 8.18817 45.9996" fill="black"/>
<path fill-rule="evenodd" clip-rule="evenodd" d="M4.27984 0C4.88087 0 5.36803 0.487337 5.36803 1.08837C5.36803 1.6894 4.88069 2.17656 4.27984 2.17656C3.67899 2.17656 3.19165 1.68922 3.19165 1.08837C3.19165 0.487517 3.67881 0 4.27984 0Z" fill="black"/>
<path fill-rule="evenodd" clip-rule="evenodd" d="M2.12229 5.15918C2.90304 5.15918 3.53609 5.79223 3.53609 6.57298C3.53609 7.35372 2.90304 7.98678 2.12229 7.98678C1.34155 7.98678 0.708496 7.35372 0.708496 6.57298C0.708496 5.79223 1.34155 5.15918 2.12229 5.15918Z" fill="black"/>
<path fill-rule="evenodd" clip-rule="evenodd" d="M1.73923 10.3184C2.69969 10.3184 3.47846 11.0971 3.47846 12.0574C3.47846 13.0177 2.69987 13.7968 1.73923 13.7968C0.778587 13.7968 0 13.018 0 12.0574C0 11.0968 0.778587 10.3184 1.73923 10.3184Z" fill="black"/>
<path fill-rule="evenodd" clip-rule="evenodd" d="M3.29049 15.4775C4.43085 15.4775 5.35515 16.402 5.35515 17.5422C5.35515 18.6824 4.43067 19.6069 3.29049 19.6069C2.15031 19.6069 1.22583 18.6824 1.22583 17.5422C1.22583 16.402 2.15031 15.4775 3.29049 15.4775Z" fill="black"/>
<path fill-rule="evenodd" clip-rule="evenodd" d="M5.87593 20.6367C7.196 20.6367 8.26602 21.7067 8.26602 23.0268C8.26602 24.3469 7.196 25.4169 5.87593 25.4169C4.55586 25.4169 3.48584 24.3469 3.48584 23.0268C3.48584 21.7067 4.55586 20.6367 5.87593 20.6367Z" fill="black"/>
<path fill-rule="evenodd" clip-rule="evenodd" d="M3.50731 45.3904C2.90628 45.3904 2.41895 44.9033 2.41895 44.3021C2.41895 43.7008 2.9061 43.2139 3.50731 43.2139C4.10852 43.2139 4.59568 43.701 4.59568 44.3021C4.59568 44.9031 4.10834 45.3904 3.50731 45.3904Z" fill="black"/>
<path fill-rule="evenodd" clip-rule="evenodd" d="M6.15574 40.8948C5.375 40.8948 4.74194 40.2617 4.74194 39.481C4.74194 38.7003 5.375 38.0674 6.15574 38.0674C6.93649 38.0674 7.56954 38.7004 7.56954 39.481C7.56954 40.2616 6.93649 40.8948 6.15574 40.8948Z" fill="black"/>
<path fill-rule="evenodd" clip-rule="evenodd" d="M7.58322 35.7353C6.62258 35.7353 5.84399 34.9565 5.84399 33.9961C5.84399 33.0356 6.62258 32.2568 7.58322 32.2568C8.54387 32.2568 9.32245 33.0354 9.32245 33.9961C9.32245 34.9567 8.54387 35.7353 7.58322 35.7353Z" fill="black"/>
<path fill-rule="evenodd" clip-rule="evenodd" d="M7.55245 30.5766C6.4121 30.5766 5.48779 29.6521 5.48779 28.5119C5.48779 27.3717 6.41228 26.4473 7.55245 26.4473C8.69263 26.4473 9.61711 27.3717 9.61711 28.5119C9.61711 29.6521 8.69263 30.5766 7.55245 30.5766Z" fill="black"/>
</svg>
